<?xml version="1.0" encoding="UTF-8"?><svg id="Capa_1" xmlns="http://www.w3.org/2000/svg" viewBox="0 0 919.03 684.72"><defs><style>.cls-1{fill:#b3b1ff;}.cls-2{fill:#bcbbff;}.cls-3{fill:#d8d7ff;}.cls-4{fill:#aaa8ff;}.cls-5{fill:#cfceff;}.cls-6{fill:#2c3152;}</style></defs><g><g><path class="cls-1" d="M102,585.67c3.35,32.31,5.45,64.79,6.3,97.27,.03,2.3-1.64,2.4-1.91,.12-3.36-32.31-5.47-64.79-6.32-97.27-.03-2.73,1.62-2.84,1.94-.13Z"/><path class="cls-1" d="M299.51,576.41c-.85,32.47-2.97,64.96-6.32,97.27-.27,2.28-1.94,2.17-1.91-.12,.85-32.47,2.95-64.96,6.3-97.27,.32-2.71,1.97-2.61,1.94,.13Z"/><path class="cls-1" d="M297.35,572.33c-1.06-4.08-4.02-7.49-7.4-10.13-3.42-2.66-7.34-4.71-11.41-6.37-8.18-3.3-16.89-5.29-25.68-6.69-17.61-2.78-35.54-3.41-53.44-3.43-17.9,.04-35.84,.69-53.43,3.54-8.77,1.44-17.49,3.48-25.62,6.86-4.05,1.71-7.94,3.81-11.31,6.52-3.29,2.74-6.13,6.24-7,10.37-.49,2.3-.57,3.49-1.03,3.6-.4,.14-1.29-1.24-.86-3.96,.85-4.79,3.91-8.75,7.36-11.81,3.54-3.03,7.57-5.34,11.74-7.23,8.37-3.74,17.24-6.01,26.15-7.63,17.86-3.22,35.98-4.02,54-4.07,18.02,.02,36.14,.8,54,3.94,8.91,1.59,17.79,3.8,26.2,7.45,4.18,1.84,8.24,4.1,11.83,7.07,3.53,2.95,6.71,6.79,7.78,11.52,.67,3.21-.3,4.86-.7,4.72-.46-.11-.47-1.54-1.18-4.26Z"/></g><g><path class="cls-4" d="M309.02,585.67c3.35,32.31,5.45,64.79,6.3,97.27,.03,2.3-1.64,2.4-1.91,.12-3.36-32.31-5.47-64.79-6.32-97.27-.03-2.73,1.62-2.84,1.94-.13Z"/><path class="cls-4" d="M506.52,576.41c-.85,32.47-2.97,64.96-6.32,97.27-.27,2.28-1.94,2.17-1.91-.12,.85-32.47,2.95-64.96,6.3-97.27,.32-2.71,1.97-2.61,1.94,.13Z"/><path class="cls-4" d="M504.36,572.33c-1.06-4.08-4.02-7.49-7.4-10.13-3.42-2.66-7.34-4.71-11.41-6.37-8.18-3.3-16.89-5.29-25.68-6.69-17.61-2.78-35.54-3.41-53.44-3.43-17.9,.04-35.84,.69-53.43,3.54-8.77,1.44-17.49,3.48-25.62,6.86-4.05,1.71-7.94,3.81-11.31,6.52-3.29,2.74-6.13,6.24-7,10.37-.49,2.3-.57,3.49-1.03,3.6-.4,.14-1.29-1.24-.86-3.96,.85-4.79,3.91-8.75,7.36-11.81,3.54-3.03,7.57-5.34,11.74-7.23,8.37-3.74,17.24-6.01,26.15-7.63,17.86-3.22,35.98-4.02,54-4.07,18.02,.02,36.14,.8,54.01,3.94,8.91,1.59,17.79,3.8,26.2,7.45,4.18,1.84,8.24,4.1,11.83,7.07,3.53,2.95,6.71,6.79,7.78,11.52,.67,3.21-.3,4.86-.7,4.72-.46-.11-.47-1.54-1.18-4.26Z"/></g><g><path class="cls-1" d="M516.03,585.67c3.35,32.31,5.45,64.79,6.3,97.27,.03,2.3-1.64,2.4-1.91,.12-3.36-32.31-5.47-64.79-6.32-97.27-.03-2.73,1.62-2.84,1.94-.13Z"/><path class="cls-1" d="M713.54,576.41c-.85,32.47-2.97,64.96-6.32,97.27-.27,2.28-1.94,2.17-1.91-.12,.85-32.47,2.95-64.96,6.3-97.27,.32-2.71,1.97-2.61,1.94,.13Z"/><path class="cls-1" d="M514.37,571.88c.55-2.33,1.58-4.54,2.99-6.42,1.34-1.95,3.03-3.58,4.79-5.11,3.59-2.98,7.68-5.15,11.83-7.08,8.42-3.59,17.28-5.88,26.2-7.46,17.87-3.14,35.99-3.93,54.01-3.93,18.02,.05,36.14,.85,54,4.07,2.23,.39,4.45,.9,6.67,1.35,2.2,.57,4.42,1.03,6.6,1.69,4.39,1.19,8.7,2.73,12.87,4.61,4.16,1.9,8.2,4.2,11.73,7.24,3.48,3.03,6.52,7.01,7.36,11.8,.42,2.72-.44,4.09-.86,3.96-.45-.1-.55-1.31-1.03-3.61-.87-4.12-3.69-7.64-7.01-10.35-3.36-2.73-7.26-4.82-11.3-6.53-4.06-1.69-8.27-3.09-12.57-4.16-2.13-.6-4.32-1-6.48-1.52-2.19-.39-4.36-.86-6.56-1.2-17.59-2.85-35.53-3.49-53.43-3.54-17.9,0-35.84,.63-53.44,3.41-8.78,1.4-17.48,3.46-25.68,6.7-4.03,1.75-7.98,3.71-11.41,6.38-1.67,1.37-3.28,2.82-4.54,4.54-1.34,1.66-2.3,3.59-2.85,5.6-.73,2.71-.72,4.15-1.19,4.26-.39,.15-1.38-1.51-.69-4.71Z"/></g><path class="cls-1" d="M181.39,531.12l-1.69-5.36c-.53-1.8-.86-3.64-1.3-5.47-.94-3.64-1.28-7.38-1.86-11.09-.7-7.46-.97-14.99-.48-22.46,.94-14.95,3.83-29.73,8.69-43.83,.75-1.99,2.33-1.43,1.83,.56-3.6,14.26-5.81,28.87-6.72,43.49-.47,7.32-.37,14.64,.01,21.94,.41,3.62,.55,7.3,1.24,10.89,.31,1.8,.51,3.63,.9,5.41l1.24,5.35c.51,2.41-1.06,2.95-1.86,.56Z"/><path class="cls-1" d="M204.82,533.85c-.93-4.62-.83-9.4-.19-14.04,.68-4.65,1.95-9.16,3.45-13.55,3.01-8.8,7.13-17.01,9.89-25.54,1.41-4.26,2.53-8.6,3.06-12.97,.57-4.37,.48-8.79-.51-13.02-1.84-8.55-7.87-15.75-14.95-21.21-2-1.55-1.12-2.95,1.11-1.54,3.85,2.59,7.46,5.65,10.47,9.31,3.02,3.63,5.38,7.97,6.58,12.64,1.26,4.65,1.47,9.53,.94,14.24-.49,4.72-1.64,9.31-3.1,13.74-2.89,8.91-7.17,17.07-10.37,25.49-3.21,8.38-5.6,17.25-4.48,26.14,.41,2.93-1.17,3.42-1.9,.31Z"/><path class="cls-1" d="M195.11,532.36c-1.47-5.31-2.15-10.82-2.42-16.29-.27-5.48-.14-10.93,.01-16.34,.32-10.83,.95-21.65,1.89-32.44,.17-1.52,1.82-1.48,1.9,.06,.31,10.83,.3,21.67-.01,32.5-.3,10.84-1.13,21.54,.51,32.11,.25,1.77-1.34,2.19-1.88,.41Z"/><path class="cls-1" d="M170.6,507.7c-10.63,4.44-20.48,10.43-29.33,17.63-4.44,3.59-8.58,7.54-12.45,11.74-3.81,4.25-7.7,8.56-9.94,13.69-.62,1.43-2.23,1.02-1.78-.66,.89-2.89,2.33-5.58,3.94-8.08,1.63-2.49,3.41-4.84,5.29-7.12,3.76-4.55,7.96-8.78,12.56-12.5,9.18-7.48,19.81-13.18,31.08-16.51,1.91-.54,2.41,1.02,.65,1.81Z"/><path class="cls-1" d="M273.02,548.2c-5.16-11.76-12.71-22.32-22.02-30.94-4.62-4.22-9.88-7.94-15.8-8.98-5.88-1.17-12.19,1.45-18.95,1.57-1.94-.06-1.83-1.72-.11-1.9,3.11-.33,6.16-1.27,9.36-2.04,3.17-.77,6.66-1.39,10.18-.9,3.49,.43,6.8,1.72,9.76,3.42,2.98,1.7,5.65,3.8,8.11,6.05,9.78,9.02,17.17,20.55,21.27,33.04,.65,2.12-.91,2.65-1.8,.69Z"/><path class="cls-1" d="M225.96,480.9c.12,3.96,.64,7.76,1.47,11.49,.84,3.73,1.99,7.38,3.58,11.02,.19,.53-1.18,1.46-1.6,1.02-2.77-3.15-4.74-7.07-5.66-11.21-.93-4.15-.84-8.53,.31-12.56,.22-.68,1.85-.42,1.91,.24Z"/><path class="cls-1" d="M242.52,430.84c-.45-2.46-1.22-4.85-2.21-7.12-.95-2.29-2.21-4.44-3.6-6.47-2.8-4.06-6.4-7.53-10.49-10.21-2.05-1.34-4.25-2.41-6.51-3.32-2.28-.84-4.66-1.48-7.12-1.89-4.91-.84-10.04-.93-15.19-1.03-1.46-.06-1.53-1.71-.08-1.9,5.14-.53,10.39-.92,15.72-.35,2.66,.28,5.32,.85,7.91,1.72,2.56,.93,5.04,2.1,7.32,3.59,4.56,2.97,8.42,6.96,11.22,11.57,1.39,2.31,2.57,4.75,3.38,7.31,.84,2.54,1.4,5.18,1.56,7.84,.09,1.8-1.55,1.88-1.91,.25Z"/><path class="cls-1" d="M234.42,478.28c2.45-2.36,3.36-5.95,3.68-9.47,.31-3.54,.07-7.27-.1-10.96-.41-7.35-1.37-14.66-4.07-21.29-2.7-6.62-7.02-12.58-12.4-17.39-5.37-4.82-11.89-8.41-18.94-10.33-1.97-.57-1.73-2.21,.42-1.85,7.51,1.38,14.7,4.75,20.66,9.66,5.97,4.89,10.81,11.26,13.76,18.49,2.95,7.27,3.78,15.06,3.88,22.59,.01,3.76,.08,7.54-.5,11.42-.29,1.92-.76,3.85-1.56,5.7-.8,1.83-1.94,3.6-3.56,4.88-1.1,.87-1.96,.75-2.15,.39-.24-.42,.09-1.04,.88-1.83Z"/><path class="cls-1" d="M171.3,480.42c-4.5-3.53-7.96-8.33-10.28-13.57-2.33-5.25-3.6-10.93-3.92-16.64-.32-5.7,.23-11.38,1.27-16.89,1.04-5.52,2.56-10.88,4.22-16.17,.5-1.48,2.11-1.07,1.84,.47-2.1,10.81-4.16,21.65-3.56,32.37,.31,5.32,1.33,10.61,3.22,15.59,1.88,4.96,4.66,9.62,8.48,13.39,1.26,1.27,.29,2.6-1.27,1.45Z"/><path class="cls-1" d="M195.16,401.61c-4.84-.68-9.74-.47-14.44,.55-4.7,.98-9.22,2.76-13.27,5.27-4.08,2.46-7.61,5.72-10.24,9.65-2.62,3.9-4.27,8.55-3.81,13.29,.1,1.31-1.5,1.77-1.88,.3-.57-2.58-.55-5.31-.01-7.92,.54-2.61,1.56-5.11,2.89-7.4,2.66-4.58,6.59-8.42,11.08-11.13,8.94-5.53,20.14-7.16,30.08-4.48,1.67,.49,1.24,2.08-.39,1.89Z"/><path class="cls-1" d="M151.36,458.87c-3.03-.64-6.42-1.53-9.09-4.06-1.31-1.22-2.4-2.94-2.82-4.81-.41-1.83-.39-3.58-.11-5.35,.58-3.46,2.52-6.96,5.86-8.77,1.65-.9,3.48-1.23,5.17-1.26,1.7-.03,3.31,.21,4.86,.5,.87,.2,.72,1.85-.16,1.89-3.08,.03-6.12,.26-8.18,1.71-2.08,1.41-3.38,3.93-3.82,6.57-.21,1.3-.25,2.72-.03,3.95,.21,1.19,.76,2.27,1.62,3.28,1.71,2.03,4.43,3.33,7.28,4.53,.95,.45,.47,2.02-.58,1.84Z"/><path class="cls-1" d="M244.85,453.13c1.39-.7,2.62-1.69,3.79-2.79,1.17-1.12,2.31-2.3,3.23-3.53,1.93-2.47,2.66-5.1,2.13-8.05-.24-1.46-.71-2.94-1.31-4.39-.28-.71-.58-1.21-.78-1.37-.12-.16-.66-.32-1.5-.38-1.58-.16-3.1-.2-4.48,.16-1.35,.34-2.64,1.13-3.36,2.29-.36,.61-2.05,.37-1.72-.8,.74-1.91,2.37-3.31,4.2-4.06,1.83-.75,3.76-.9,5.55-.89,.83,.02,2.08-.02,3.36,.83,1.2,.84,1.69,1.93,2.09,2.74,.76,1.63,1.39,3.39,1.7,5.27,.31,1.87,.27,3.92-.35,5.85-.61,1.93-1.72,3.57-2.96,4.93-1.25,1.37-2.62,2.49-4.05,3.52-1.44,1.03-3.05,1.95-4.83,2.47-1.25,.28-1.58-1.34-.69-1.8Z"/><g><path class="cls-1" d="M196.2,431.53c-2.16-.13-3.92,1.64-5.35,3.27-1.53,1.73-3.12,3.62-3.4,5.92-.03,.26-.04,.56,.12,.77,.23,.33,.72,.34,1.12,.3,4.97-.52,9.6-3.62,11.97-8.02,.25-.47,.49-1.03,.29-1.53-.21-.52-.8-.75-1.33-.9-1.41-.38-2.9-.49-4.35-.32"/><path class="cls-1" d="M195.97,429.98c.82-.12,1.66-.15,2.5-.09,.45,.04,.77,.06,1.33,.17,.63,.12,1.25,.34,1.74,.73,1.03,.78,1.18,2.25,.57,3.46-.35,.71-.46,.92-.69,1.33-.22,.36-.43,.73-.68,1.08-1.92,2.81-4.76,4.97-7.99,6.12-.41,.14-.81,.28-1.23,.38l-.62,.16-.73,.14c-.76,.16-1.45,.1-2.16,.15-.69-.02-1.19-.29-1.65-.73-.94-.91-.79-2.3-.36-3.72,.12-.32,.26-.75,.37-.95,.1-.21,.21-.42,.32-.61,.22-.39,.47-.77,.72-1.12,1.05-1.41,2.13-2.44,3.32-3.56,1.21-1.06,2.75-2.22,4.72-2.31,1.16,.07,.78,1.75,.21,1.89-1.12,.28-2.08,1.23-2.98,2.31-.88,1.11-1.86,2.36-2.52,3.49-.17,.29-.32,.57-.44,.86-.06,.14-.12,.28-.17,.42-.06,.15-.02,.08-.02,.12,.02,.05,.03,.08,.07,.08,.04,0,.06-.03,.07-.05-.04,0,.27-.06,.39-.09l.48-.13c.32-.08,.64-.2,.96-.3,2.52-.9,4.85-2.47,6.61-4.55,.23-.25,.43-.53,.64-.8,.18-.23,.46-.69,.47-.65,.12-.09,.25-.34,.1-.51-.06-.08-.15-.14-.26-.2-.18-.08-.61-.2-.91-.28-.67-.17-1.36-.28-2.06-.32-.92-.07-1.22-1.69-.09-1.92Z"/></g><path class="cls-4" d="M407.76,471.37c-2.15,6.47-8.92,11.16-15.94,10.63-6.9-.39-13.33-4.92-16.15-11.27-1.44-3.13-2.1-6.58-2.04-10,.03-1.71,.24-3.42,.64-5.09,.4-1.64,.91-3.53,2.56-5.14,.82-.78,1.99-1.37,3.22-1.45,1.22-.1,2.38,.22,3.33,.74,1.88,1.04,3.25,2.81,3.7,4.95,.43,2,.1,3.96-.42,5.64-.54,1.71-1.26,3.2-2.02,4.68-1.56,2.94-3.49,5.79-6.17,8.1-2.64,2.3-6.28,3.89-10.02,3.65-3.73-.22-7.07-2.03-9.59-4.44-2.55-2.41-4.32-5.65-5.15-8.95-.87-3.31-.99-6.71-.72-9.99,.27-3.29,.93-6.48,1.8-9.62,1.78-6.25,4.75-12.28,9.26-17.04,1.29-1.33,2.3-1.59,2.58-1.28,.32,.35-.06,1.23-1.18,2.56-4.02,4.68-6.58,10.47-8.04,16.46-1.41,5.99-2.13,12.35-.52,18.03,.8,2.84,2.26,5.34,4.37,7.27,2.07,1.92,4.71,3.23,7.37,3.34,2.65,.12,5.27-.98,7.39-2.84,2.14-1.86,3.86-4.35,5.26-7.01,1.4-2.68,2.61-5.52,2.12-7.8-.17-.98-.92-1.96-1.81-2.46-.44-.26-.88-.35-1.24-.32-.36,.02-.7,.16-1.03,.47-.69,.6-1.23,1.88-1.55,3.3-.36,1.41-.56,2.87-.61,4.33-.11,2.92,.4,5.88,1.55,8.55,2.2,5.35,7.51,9.34,13.32,9.9,5.76,.69,11.78-3.03,13.92-8.55,.7-1.83,1.12-2.82,1.61-2.79,.4,.01,.88,1.22,.21,3.44Z"/><path class="cls-4" d="M428.38,470.72c2.15,5.52,8.16,9.24,13.92,8.55,5.82-.55,11.12-4.54,13.32-9.9,1.15-2.67,1.66-5.62,1.55-8.55-.05-1.46-.26-2.92-.61-4.33-.32-1.41-.86-2.69-1.55-3.3-.34-.31-.68-.45-1.03-.47-.36-.03-.8,.07-1.24,.32-.89,.5-1.65,1.47-1.81,2.46-.49,2.27,.72,5.12,2.12,7.8,1.4,2.66,3.12,5.15,5.26,7.01,2.12,1.86,4.74,2.96,7.39,2.84,2.66-.11,5.3-1.42,7.37-3.34,2.11-1.93,3.57-4.43,4.37-7.27,1.61-5.68,.89-12.04-.52-18.03-1.47-5.99-4.02-11.78-8.04-16.46-1.11-1.33-1.49-2.21-1.18-2.56,.28-.31,1.3-.05,2.58,1.28,4.52,4.76,7.49,10.8,9.26,17.04,.87,3.14,1.52,6.33,1.8,9.62,.27,3.28,.15,6.68-.72,9.99-.83,3.3-2.59,6.54-5.15,8.95-2.52,2.41-5.86,4.22-9.59,4.44-3.74,.24-7.39-1.35-10.02-3.65-2.68-2.3-4.61-5.15-6.17-8.1-.76-1.48-1.48-2.97-2.02-4.68-.52-1.69-.85-3.64-.42-5.64,.45-2.14,1.83-3.91,3.7-4.95,.94-.52,2.1-.84,3.33-.74,1.23,.09,2.41,.67,3.22,1.45,1.65,1.61,2.17,3.5,2.56,5.14,.39,1.67,.6,3.38,.64,5.09,.06,3.42-.6,6.86-2.04,10-2.82,6.35-9.25,10.88-16.15,11.27-7.01,.53-13.79-4.16-15.94-10.63-.68-2.22-.2-3.43,.21-3.44,.48-.03,.9,.96,1.61,2.79Z"/><path class="cls-4" d="M352.36,542.25c.49-3.62,1.91-7.1,3.9-10.14,1.99-3.05,4.49-5.73,7.24-8.06,5.55-4.7,11.97-7.83,17.99-11.17,3.02-1.66,5.98-3.37,8.72-5.32,2.66-1.8,4.78-4.33,6.68-7.08,3.64-5.56,6.42-12.05,6.9-18.71,.07-1.84,1.72-2.09,1.9,0,.12,7.3-2.35,14.28-6.02,20.5-1.9,3.05-4.24,6.06-7.32,8.26-2.89,2.15-5.97,3.97-9.05,5.67-6.14,3.4-12.42,6.32-17.72,10.43-5.26,4.09-9.87,9.41-11.34,15.95-.42,2.15-2.08,2.16-1.9-.33Z"/><path class="cls-4" d="M479.64,549.42c-.57-6.55-3.63-12.64-7.75-17.67-4.16-5.07-9.42-9.2-14.95-12.98-2.78-1.9-5.67-3.79-8.41-5.98-1.37-1.1-2.7-2.27-3.95-3.56-.6-.6-1.28-1.42-1.82-2.21l-.74-1.22-.6-1.26c-1.48-3.38-2.15-6.87-2.5-10.34-.33-3.48-.38-6.95,.11-10.45,.4-2.02,2.01-1.58,1.89,.2-.15,3.27,.16,6.63,.7,9.89,.55,3.25,1.4,6.48,2.79,9.28l.55,1.02,.62,.93c.46,.59,.87,1.08,1.49,1.67,1.16,1.12,2.42,2.16,3.73,3.16,2.62,2,5.45,3.81,8.29,5.75,5.68,3.89,11.19,8.37,15.43,14.05,4.21,5.64,7.09,12.53,7.05,19.64-.11,2.4-1.76,2.24-1.92,.08Z"/><path class="cls-4" d="M444.55,508.79c-3.62,2.36-7.77,3.9-12.03,4.76-4.27,.84-8.64,.99-12.94,.63-4.29-.37-8.53-1.23-12.6-2.46-4.05-1.21-7.9-2.62-11.91-3.2-1.12-.18-1.12-1.84,.12-1.9,4.36-.02,8.58,1.02,12.61,1.9,4.02,.89,8.04,1.54,12.09,1.89,4.04,.34,8.1,.34,12.09-.14,3.99-.51,7.94-1.47,11.64-3.17,1.26-.52,2.14,.87,.92,1.69Z"/><path class="cls-4" d="M380.87,541.1c-.68-4.22-1.07-8.38-1.57-12.46-.48-4.08-1.03-8.55-.06-12.93,.17-.62,1.82-.43,1.89,.15,.31,4.09,1.4,8.03,1.92,12.33,.53,4.33,.3,8.65-.26,12.88-.13,.71-1.77,.74-1.93,.03Z"/><path class="cls-4" d="M387.09,538.95c-2.42-8.46-3.36-17.23-2.79-26.01,.07-.62,1.73-.75,1.89-.15,1.92,8.55,2.84,17.13,2.8,25.89-.04,.74-1.67,.97-1.91,.26Z"/><path class="cls-4" d="M450.07,541.34c-1.81-9.02-2-18.27-.55-27.36,.14-.64,1.79-.6,1.9,.04,1.05,9.09,1.24,18.07,.57,27.19-.09,.77-1.73,.88-1.92,.12Z"/><path class="cls-4" d="M457.75,542.27c-1.19-7.71-1.13-15.43,.18-23.13,.13-.54,1.78-.53,1.9,.01,1.19,7.71,1.14,15.43-.15,23.13-.15,.65-1.79,.63-1.93-.01Z"/><path class="cls-4" d="M366.26,380.13c-2.3-.36-4.69,.21-6.71,1.35-2.02,1.13-3.69,2.86-5.03,4.85-1.34,1.98-2.4,4.23-3.28,6.54-.88,2.31-1.54,4.69-1.94,7.1-.8,4.8-.51,9.79,1.37,14.21,1.87,4.41,5.22,8.34,9.7,10.36,1.24,.56,.86,2.18-.67,1.78-5.27-1.64-9.58-5.79-12.03-10.75-2.51-5.02-3-10.83-2.1-16.21,.44-2.7,1.22-5.33,2.26-7.84,1.03-2.5,2.31-4.92,4-7.14,1.69-2.2,3.86-4.17,6.49-5.35,2.59-1.17,5.59-1.57,8.36-.78,1.86,.7,1.03,2.17-.43,1.88Z"/><path class="cls-4" d="M362.84,402.37c-1.23-4.05-1.16-8.55,.16-12.65,.66-2.05,1.62-4.01,2.84-5.77,.62-.88,1.3-1.71,2.03-2.49,.38-.37,.77-.74,1.16-1.12,.43-.38,1.07-.9,1.88-.98,.46-.02,.66,.51,.65,.95,0,.42-.09,.81-.2,.89-.2,.11-.34,.33-.57,.69-.25,.41-.5,.82-.75,1.22-.48,.84-.93,1.67-1.35,2.52-.83,1.7-1.52,3.45-2.09,5.24-1.13,3.57-1.8,7.3-1.86,11.22-.05,.66-1.67,.97-1.91,.28Z"/><path class="cls-4" d="M389.58,399.36c-.35-2.37-.48-4.77-.78-7.03-.18-1.1-.44-2.08-.86-2.83-.42-.76-1.1-1.5-1.91-2.28-1.73-1.63-3.31-3.24-5.08-4.06-1.79-.86-4.12-1.06-6.51-1.21-.68-.08-.8-1.73-.12-1.9,2.38-.45,5.03-.84,7.8,.01,2.8,.9,4.77,2.79,6.54,4.43,.92,.89,1.9,1.95,2.57,3.37,.66,1.42,.84,2.86,.89,4.15,.02,2.55-.33,4.99-.6,7.44-.14,.82-1.78,.71-1.92-.09Z"/><path class="cls-4" d="M471.21,383.08c-2.39-2.34-5.57-3.65-8.78-4.06-3.21-.41-6.53,.14-9.65,1.26-1.57,.56-3.1,1.27-4.58,2.09-1.47,.81-2.84,1.72-3.91,2.81-1.08,1.09-1.79,2.34-2.12,3.9-.34,1.54-.33,3.28-.27,5.05,0,1.01-1.64,1.23-1.89,.23-.37-1.78-.7-3.65-.54-5.66,.12-2.01,1-4.15,2.33-5.71,1.32-1.6,2.92-2.79,4.54-3.78,1.62-.99,3.34-1.84,5.15-2.49,3.6-1.3,7.63-1.81,11.5-.97,3.82,.82,7.43,2.93,9.68,6.09,.71,1.13-.69,2-1.47,1.24Z"/><path class="cls-4" d="M473.76,410.27c.11-.3-.02-1.73-.04-2.82-.04-1.14-.07-2.26-.11-3.37-.08-2.23-.19-4.41-.47-6.52-.28-2.12-.71-4.19-1.42-6.15-.73-1.92-1.62-4.03-3.05-5.02-.36-.26-.1-1.93,.75-1.75,1.38,.42,2.43,1.38,3.25,2.33,.81,.96,1.5,1.99,2.07,3.09,1.15,2.2,1.83,4.6,2.14,7,.32,2.41,.28,4.8,.04,7.13-.12,1.16-.28,2.31-.48,3.45-.1,.56-.21,1.13-.31,1.7-.13,.6-.21,1.36-.88,2.13-.56,.53-1.12,.15-1.21-.27-.11-.44-.23-.87-.29-.94Z"/><path class="cls-4" d="M475.21,422.97c3.49-1.28,6.11-4.28,7.53-7.59,1.43-3.39,1.78-7.2,1.6-11.03-.19-3.87-.76-7.64-2.46-10.93-.84-1.65-1.92-3.2-3.2-4.57-1.29-1.37-2.74-2.59-4.35-2.89-.83-.12-1.3-1.77,.15-1.89,2.47,.08,4.45,1.46,6.07,2.8,1.65,1.39,3.09,3.07,4.22,4.94,2.33,3.78,3.15,8.21,3.35,12.37,.2,4.2-.33,8.68-2.37,12.63-2.04,3.92-5.66,7.15-10.03,8.02-1.51,.2-1.64-1.45-.5-1.86Z"/><path class="cls-4" d="M440.63,394.53c-2.85-2.96-6.79-4.5-10.84-5.24-4.07-.75-8.32-.8-12.53-.52-4.2,.27-8.35,1.02-12.3,2.33-3.92,1.37-7.67,3.33-10.74,6.22-.89,.77-2.18-.27-1.39-1.3,2.83-3.57,6.76-6.22,10.94-8.01,4.22-1.76,8.73-2.72,13.23-3.02,4.49-.3,9.06-.09,13.52,1.06,4.4,1.12,8.85,3.42,11.59,7.26,.87,1.35-.55,2.19-1.49,1.22Z"/><path class="cls-4" d="M364.76,430.09c-.39-.45,0-2.42,.18-3.47,.29-1.87,.35-3.15,.6-4.07,0,0,.2,.06,.67,.02,.46-.03,1.27-.22,2.4-.84,1.09-.6,2.59-1.66,4.02-2.84,.72-.6,1.46-1.24,2.17-1.94,.72-.69,1.41-1.44,2.1-2.2,2.7-3.08,4.88-6.73,6.09-9.83,1.26-3.09,1.63-5.57,1.43-6.34-.08-.3,.06-.56,.23-.81,.14-.21,.99-.16,1.99,.01,1.5,.26,2.68,.71,3.93,1.14,3.16,1.67,2.17,1.67,1.11,3.72-1.08,2.01-.81,2.09-.79,2.95,0,.39-.67,0-.31,.83,.08,.16-.47,1.34-1.12,2.48-.67,1.13-1.41,2.22-1.6,2.3-.06,.03-.1,.08-.05,.15,.78,1.12-.96,.93-1.25,1.78-.19,.57-.67,1.66-1.17,2.59-.47,.94-.95,1.71-.95,1.71-.22,.54-1.08,.56-1.18,1.19-.62,.17-.52,.96-1.21,1.06-.21,.03-.22,.25-.35,.35-.14,.11-.56,.1-.56,.36,0,.14-.02,.24-.19,.22-.14-.02-.31-.04-.3,.07,.05,.31-.31,.91-.74,.84-.31-.05-.57-.06-.72,.12,.67,1.09,.08,1.1-.2,1.37-.04,.04-.28-.12-.44-.22-1.2-.75,.31,.98-.9,.94-.16,0-.47-.18-.4,.12,.01,.06-.21-.09-.37-.16,.24,.63,.1,.9-.15,1.07-.16,.11-.2,.38-.33,.54-.38,.45-1.28-.75-1.22,.28,.03,.85-1.21,.37-1.11,1.06,.01,.09-.13,.07-.23,0-.42-.28-.62-.2-.73,.04-.1,.23-.34,.29-.24,.82-.31,.17-.38,.79-1,.45-.18-.1-.32-.02-.43,.07-.24,.19-.68-.01-.69,.66,0,.1-.12,.13-.19,.05-.5-.56-.6-.07-.89-.03-.27,.04-.78,.3-.96,.66-.11,.22-.69,.4-1.35,.48-.66,.08-1.36,.06-1.62,.09-.28,.05-.56,.11-.98,.15Z"/><path class="cls-4" d="M439.38,393.54c.41-.37,2.41-.17,3.47-.07,1.89,.17,3.17,0,4.1,.33v.39c-.01,.25-.05,.62-.01,1.1,0,.47,.05,1.05,.16,1.72,.1,.66,.24,1.42,.49,2.22,.47,1.62,1.25,3.5,2.47,5.35,1.21,1.85,2.79,3.7,4.66,5.26,1.83,1.57,4.03,2.88,6.21,3.92,2.2,1.03,4.43,1.78,6.46,2.32,4.08,1.05,7.32,1.28,8.29,1.05,.38-.09,.74,.04,1.09,.19,.3,.13,.36,.98,.28,1.99-.13,1.52-.52,2.73-.88,4.01-1.58,3.29-1.65,2.26-4.24,1.37-2.55-.91-2.6-.66-3.61-.56-.46,.03-.15-.67-1.04-.24-.16,.08-1.68-.35-3.17-.94-1.49-.58-2.95-1.31-3.09-1.49-.05-.05-.12-.1-.19-.03-1.15,.86-1.32-.96-2.4-1.24-.72-.17-2.12-.69-3.33-1.22-1.21-.54-2.22-1.09-2.22-1.09-.68-.28-.86-1.21-1.63-1.39-.33-.69-1.22-.69-1.45-1.48-.07-.23-.33-.27-.47-.44-.14-.17-.19-.65-.49-.69-.16-.02-.28-.06-.28-.24,0-.15,0-.35-.12-.35-.34-.01-1.08-.52-1.04-1,.02-.34,.01-.64-.19-.85-1.17,.54-1.23-.14-1.55-.53-.05-.06,.12-.3,.22-.46,.78-1.23-1.09,.15-1.08-1.29,0-.19,.2-.51-.14-.5-.07,0,.09-.23,.16-.39-.7,.12-1.01-.12-1.18-.47-.12-.23-.41-.35-.58-.56-.49-.59,.85-1.29-.25-1.55-.93-.23-.29-1.6-1.02-1.71-.1-.02-.06-.17,.03-.27,.33-.4,.29-.66,.06-.87-.22-.2-.25-.49-.79-.55-.14-.4-.72-.69-.28-1.27,.14-.18,.07-.35,0-.49-.16-.31,.14-.75-.52-.93-.09-.03-.1-.16-.01-.21,.64-.41,.16-.63,.18-.94,.02-.3-.16-.87-.5-1.11-.44-.28-.31-2.43-.36-2.89-.05-.24-.11-.51-.19-.88Z"/><path class="cls-4" d="M430.03,477.15c-2.01,1.85-4.51,2.87-6.74,3.82-2.32,.95-4.49,1.86-7.03,2.65-1.27,.37-2.67,.65-4.13,.63-1.45-.01-2.86-.3-4.15-.77-2.6-.94-4.72-2.49-6.63-4.13-.52-.5,.42-1.86,1.06-1.58,2.18,1.08,4.37,2.07,6.52,2.54,2.18,.5,4.1,.35,6.29-.32,2.18-.67,4.63-1.51,6.99-2.15,2.4-.68,4.7-1.16,6.7-2.24,.66-.33,1.79,.87,1.14,1.55Z"/><g><path class="cls-1" d="M706.69,560.27l-3.52-.2c-11.28-8.16-35.7-16.27-88.22-16.27h-2.28c-31.27,0-52.57,2.87-67.07,6.93l-3.73-.22c15.72-33.07,50.71-56.04,87.29-57.34,13.58-.47,27.56,1.96,39.16,9.01,20.22,12.29,29.93,35.99,38.37,58.1Z"/><path class="cls-1" d="M702.94,553.29c-2.93-7.21-6.09-14.31-9.78-21.11-3.76-6.74-8.02-13.24-13.33-18.76-2.6-2.82-5.55-5.25-8.58-7.53-1.6-1.02-3.14-2.15-4.81-3.06-1.64-.95-3.36-1.77-5.09-2.54-6.97-3.04-14.54-4.65-22.17-5.23-3.82-.26-7.66-.33-11.48-.04-1.91,.17-3.83,.25-5.73,.48l-5.69,.85c-7.54,1.41-14.91,3.69-21.94,6.75-14.11,6.05-26.71,15.47-36.78,27-1.21,1.48-2.47,2.93-3.65,4.44l-3.36,4.66c-1.07,1.58-2.03,3.25-3.05,4.86-.52,.81-1.01,1.63-1.43,2.49l-1.16,2.22s-.07,.02,.03,.03l.44,.03s.03,0,.01,0l.7-.19,1.44-.38,2.89-.7c3.86-.89,7.74-1.62,11.64-2.23,15.59-2.41,31.31-3.13,46.98-3.18,7.82-.03,15.67,.13,23.49,.45,7.83,.4,15.66,.94,23.45,1.9,7.79,.98,15.55,2.29,23.18,4.25,3.8,1.01,7.59,2.14,11.27,3.59,3.69,1.41,7.3,3.08,10.67,5.21,.49,.28,.9,.62,1.3,.9,.2,.15,.39,.29,.57,.42l.26,.2,.12,.11c.17,.15,.4,.11,.8,.2,.33,.06,.64,.12,.92,.17,1.09,.24,1.63,.49,1.61,.72-.01,.22-.58,.42-1.69,.53-.28,.02-.6,.04-.94,.07-.19,0-.39,.01-.59,.02-.26-.03-.58,.08-.82-.14-.74-.45-1.59-.97-2.57-1.56-3.27-1.98-6.8-3.53-10.42-4.84-3.61-1.35-7.34-2.38-11.09-3.31-7.52-1.79-15.2-2.97-22.92-3.81-7.72-.84-15.49-1.26-23.25-1.56-7.78-.22-15.55-.29-23.35-.18-15.55,.21-31.13,1.04-46.42,3.49-3.82,.62-7.61,1.35-11.36,2.23l-2.8,.69-1.39,.37-.72,.19c-.48,.2-.98,.14-1.43,.1l-5.41-.31c-.22-.02-.47-.02-.66-.05l.34-.65,.67-1.29,1.34-2.58,1.55-2.97c.44-.9,.94-1.75,1.48-2.59,1.06-1.69,2.05-3.42,3.17-5.06l3.48-4.85c1.23-1.57,2.53-3.07,3.79-4.61,10.46-11.98,23.54-21.71,38.2-27.9,7.31-3.13,14.96-5.45,22.79-6.85l5.91-.84c1.98-.22,3.97-.3,5.95-.45,3.97-.26,7.96-.15,11.92,.16,7.93,.69,15.83,2.45,23.15,5.75,1.82,.84,3.62,1.73,5.34,2.75,1.75,.98,3.36,2.19,5.03,3.29,3.17,2.44,6.22,5.05,8.88,8.02,5.44,5.83,9.71,12.59,13.41,19.52,3.63,6.99,6.69,14.22,9.49,21.52,3.68,9.86,2.12,10.42-1.8,.72Z"/></g><path class="cls-1" d="M619.17,449.08c5.07-.89,9.8-3.15,13.63-6.38,1.9-1.6,3.68-3.5,4.89-5.48,1.23-2.03,1.53-3.96,.96-6.27-.56-2.32-1.52-4.66-2.95-6.34-1.43-1.7-3.32-2.5-5.53-2.21-2.21,.28-4.48,1.45-6.61,2.86-2.14,1.41-4.15,3.05-5.98,4.88-1.04,1.02-2.35,0-1.42-1.26,1.69-2.15,3.64-4.11,5.81-5.83,2.15-1.69,4.61-3.32,7.69-3.92,1.52-.29,3.23-.24,4.8,.33,1.58,.55,2.93,1.57,3.98,2.72,2.09,2.35,3.2,5.1,3.9,7.92,.33,1.45,.5,3.06,.22,4.69-.27,1.62-.94,3.09-1.74,4.35-.81,1.27-1.76,2.38-2.76,3.37-.99,1.01-2.06,1.94-3.19,2.78-4.51,3.38-9.97,5.38-15.48,5.69-1.88,.03-1.9-1.62-.22-1.91Z"/><path class="cls-1" d="M633.97,478.82c-2.58-.25-5.04-1.51-6.96-3.26-1.93-1.76-3.38-3.99-4.28-6.42-.89-2.4-1.25-4.92-1.31-7.37-.05-2.45,.2-4.84,.57-7.18,.14-.66,1.79-.61,1.9,.05,.51,4.66,.91,9.2,2.39,13.19,.73,1.96,1.77,3.81,3.11,5.41,1.34,1.59,3,2.93,5,3.7,.65,.28,.47,1.92-.42,1.88Z"/><path class="cls-1" d="M648.82,490.72c-5.47-2.45-10.06-6.98-12.85-12.39-2.81-5.41-3.83-11.77-2.66-17.65,.18-.83,1.83-.62,1.89,.17,.13,5.59,1.64,10.93,4.13,15.75,2.5,4.81,5.98,9.13,10.46,12.47,.72,.6-.03,2.06-.97,1.66Z"/><path class="cls-1" d="M710.6,426.63c-7.66,3.75-14.3,9.31-19.72,15.83-5.43,6.52-9.68,13.99-13.07,21.82-1.74,3.94-3.12,7.89-4.63,12.07-.79,2.09-1.73,4.22-3.08,6.2-1.35,1.97-3.1,3.74-5.32,4.94-2.2,1.21-4.94,1.62-7.37,1.1-2.44-.49-4.65-1.7-6.4-3.35-3.57-3.4-4.82-8.31-4.66-12.78,.22-2.59,1.87-2.31,1.9,0,.13,4.11,1.62,8.26,4.58,10.76,2.94,2.53,7.24,3.34,10.34,1.39,1.59-.93,2.94-2.36,4-4,1.06-1.65,1.86-3.54,2.56-5.52,1.36-4.01,2.82-8.29,4.59-12.31,3.5-8.1,8.09-15.85,14.03-22.49,5.92-6.63,13.23-12.1,21.45-15.42,2.82-1.03,3.35,.53,.78,1.76Z"/><path class="cls-1" d="M709.3,415.96c-1.32-.48-2.9-.11-4.6,.33-1.71,.43-3.38,.94-5.03,1.51-3.3,1.14-6.53,2.52-9.73,4.25-.47,.21-1.53-1.06-1.18-1.49,2.6-2.85,5.98-5.06,9.68-6.33,1.85-.64,3.78-1.05,5.72-1.21,.96-.09,2.01-.12,3.08,.03,1.06,.15,2.22,.53,3.11,1.31,.59,.61-.65,1.74-1.06,1.61Z"/><path class="cls-1" d="M689.82,397.24c2.29,2.34,3.44,5.68,3.64,8.82,.23,3.18-.35,6.23-1.26,9.12-.16,.41-1.81,.24-1.89-.19-.33-3-.41-5.9-.62-8.66-.21-2.76-.5-5.39-1.48-8.04-.12-.46,1.2-1.43,1.61-1.05Z"/><path class="cls-1" d="M597.35,406.15c.47-4.54,3.63-8.32,7.23-10.65,3.65-2.38,7.54-3.89,11.51-5.26,7.97-2.68,16.46-3.82,24.87-3.44,8.42,.39,16.77,2.39,24.43,5.83,7.66,3.43,14.67,8.26,20.51,14.18,1.62,1.71,.43,2.86-1.3,1.39-6.1-5.31-13.08-9.53-20.5-12.53-7.43-3.01-15.33-4.73-23.31-5.1-7.97-.35-16.02,.57-23.7,2.84-3.81,1.15-7.7,2.48-11.04,4.41-1.66,.98-3.18,2.16-4.38,3.61-1.19,1.45-2.08,3.16-2.41,4.99-.23,1.21-.55,1.88-1.01,1.93-.42,.05-1.02-.66-.89-2.19Z"/><path class="cls-1" d="M614.48,428.7c-1.68-1.13-2.54-3.12-2.74-4.96-.21-1.88,.03-3.55,.25-5.21,.24-1.67,.6-3.32,1.07-4.94l.16-.54,.02-.08s-.01,0-.01,0h0s.01-.01,.01-.02c0,0,0-.01-.01-.02h-.01l-.55,.14c-1.58,.4-3.2,.65-4.82,.74-3.24,.18-6.49-.27-9.48-1.33-.87-.35-.39-1.93,.46-1.84,2.92,.41,5.85,.36,8.69-.09,1.42-.23,2.81-.55,4.17-.98l.55-.18c.36-.11,.72-.23,1.09-.38l2.24-.95,4.62-2.15-2.05,4.78c-.35,.8-.65,1.58-.94,2.33l-.59,1.68c-.49,1.47-.93,2.96-1.3,4.47-.36,1.52-.73,3.06-.78,4.42-.06,1.36,.29,2.68,1.17,3.6,.26,.29,.26,.77,.07,1.18-.18,.4-.68,.68-1.26,.33Z"/><path class="cls-1" d="M612.4,490.56c-3.24-.44-6.3-1.9-8.92-3.86-2.63-1.97-4.77-4.53-6.44-7.34-1.66-2.82-2.87-5.92-3.45-9.17-.58-3.25-.63-6.51-.31-9.73,.7-6.44,2.87-12.51,5.54-18.16,2.7-5.66,5.82-11.02,9.24-16.21,1-1.44,2.42-.58,1.63,.97-2.84,5.43-5.52,10.97-7.85,16.58-2.32,5.6-4.18,11.36-4.81,17.22-.3,2.91-.28,5.88,.16,8.71,.43,2.84,1.4,5.61,2.74,8.17,2.65,5.11,7.14,9.49,12.83,10.93,1.87,.44,1.85,2.1-.37,1.89Z"/></g><path class="cls-5" d="M478.77,171.18c-35.86,1.25-71.81,1.25-107.66-.01-2.53-.12-2.53-1.79,0-1.92,35.85-1.26,71.81-1.26,107.66-.01,3.01,.14,3.01,1.8,0,1.94Z"/><path class="cls-2" d="M334.39,67.86c-48.18,1.25-96.49,1.25-144.67-.01-3.4-.12-3.4-1.79,0-1.92,48.18-1.26,96.49-1.26,144.67-.01,4.05,.14,4.05,1.8,0,1.94Z"/><path class="cls-2" d="M334.39,307.48c-48.18,1.25-96.49,1.25-144.67-.01-3.4-.12-3.4-1.79,0-1.92,48.18-1.26,96.49-1.26,144.67-.01,4.05,.14,4.05,1.8,0,1.94Z"/><path class="cls-3" d="M147.23,67.86c-48.18,1.25-96.49,1.25-144.67-.01-3.4-.12-3.4-1.79,0-1.92,48.18-1.26,96.49-1.26,144.67-.01,4.05,.14,4.05,1.8,0,1.94Z"/><path class="cls-3" d="M147.23,307.48c-48.18,1.25-96.49,1.25-144.67-.01-3.4-.12-3.4-1.79,0-1.92,48.18-1.26,96.49-1.26,144.67-.01,4.05,.14,4.05,1.8,0,1.94Z"/><path class="cls-5" d="M371.47,212.79c35.86-1.25,71.81-1.25,107.66,.01,2.53,.12,2.53,1.79,0,1.92-35.85,1.26-71.81,1.26-107.66,.01-3.01-.14-3.01-1.8,0-1.94Z"/><path class="cls-5" d="M480.06,212.88c-1.25-13.96-1.25-27.96,.01-41.92,.12-.99,1.79-.99,1.92,0,1.26,13.96,1.26,27.96,.01,41.92-.14,1.17-1.8,1.17-1.94,0Z"/><path class="cls-5" d="M370.18,171.09c1.25,13.96,1.25,27.96-.01,41.92-.12,.99-1.79,.99-1.92,0-1.26-13.96-1.26-27.96-.01-41.92,.14-1.17,1.8-1.17,1.94,0Z"/><path class="cls-3" d="M149.29,296.7c-1.25-73.11-1.25-146.42,.01-219.53,.12-5.16,1.79-5.16,1.92,0,1.26,73.11,1.26,146.42,.01,219.53-.14,6.15-1.8,6.15-1.94,0Z"/><path class="cls-2" d="M186.19,296.57c-1.25-75.16-1.25-150.53,.01-225.7,.12-5.31,1.79-5.31,1.92,0,1.26,75.16,1.26,150.53,.01,225.7-.14,6.32-1.8,6.32-1.94,0Z"/><path class="cls-2" d="M336.45,296.57c-1.25-75.16-1.25-150.53,.01-225.7,.12-5.31,1.79-5.31,1.92,0,1.26,75.16,1.26,150.53,.01,225.7-.14,6.32-1.8,6.32-1.94,0Z"/><g><path class="cls-6" d="M524.41,496.69c-26.34-1.79-52.76-1.78-79.1,.02-1.86,.18-1.86,2.56,0,2.74,26.34,1.8,52.75,1.81,79.1,.02,2.21-.2,2.21-2.57,0-2.77Z"/><path class="cls-6" d="M391.39,496.69c-51.02-1.79-102.17-1.78-153.19,.02-3.6,.18-3.6,2.56,0,2.74,51.01,1.8,102.17,1.81,153.19,.02,4.29-.2,4.29-2.57,0-2.77Z"/><path class="cls-6" d="M170.93,496.69c-30.67-1.79-61.42-1.78-92.09,.02-2.17,.18-2.17,2.56,0,2.74,30.67,1.8,61.42,1.81,92.09,.02,2.58-.2,2.58-2.57,0-2.77Z"/><path class="cls-6" d="M913.8,496.69c-31.95-.69-63.93-1.11-95.92-1.27-15.99-.08-31.99-.09-47.99-.03l-23.99,.13-21.73,.21c.22-1.34,.39-3.24,.43-5.75,1.8-152.82,1.81-306.07,.02-458.9-.2-12.85-2.57-12.85-2.77,0-1.79,152.83-1.78,306.07,.02,458.9,.04,2.52,.21,4.43,.43,5.77h-.17l-27.93-4.78-28.15-4.68c-5.79-.9-6.22,1.45-.5,2.69l27.95,5.76,28.2,5.66,24.2,.23,23.99,.13c15.99,.06,31.99,.04,47.99-.03,31.99-.16,63.97-.58,95.92-1.27,6.97-.2,6.97-2.57,0-2.77Z"/><path class="cls-6" d="M590.61,473.98c-4.62-1.83-9.43-2.81-14.39-2.97,.31-.49,.55-1.26,.61-2.38,1.79-47.15,1.78-94.43-.02-141.59-.18-3.33-2.56-3.33-2.74,0-1.8,47.15-1.81,94.43-.02,141.59,.1,1.98,.74,2.97,1.39,2.97-.06,.31-.04,.65,.12,.72,4.74,1.88,9.67,2.89,14.76,3.01,.43-.02,.67-1.17,.28-1.36Z"/><path class="cls-6" d="M644.62,39.57c21.95-5.27,43.86-10.67,65.71-16.21,.87-.23,1.57-.45,2.15-.68,12.26-.56,10.51-2.45-5.29-2.63-30.17-.22-60.35-.44-90.54-.66-31.02-.15-62.04-.29-93.07-.44-.08,38.68-.16,77.37-.24,116.06l.11,113.59c.18,75.72,.6,151.42,1.24,227.05,.18,14.94,2.56,14.94,2.74,0,.23-27.58,.4-55.18,.58-82.77,.26-.81,.55-1.61,.79-2.42l5.65-20.18,5.59-20.18,2.78-10.1c.48-1.68,.88-3.38,1.43-5.03l1.72-4.94,6.85-19.78,3.41-9.89,.27-.81c.27,.02,.46-.03,.53-.17l-.04,1.07-.11,2.41c-.57,1.67,1.17,.89,2.15,.88,2.56-.34,5.14-.45,7.73-.45,5.17,.02,10.34,.69,15.37,1.93,2.25,.56,3.41,.73,3.5,.49,.09-.24-.94-.9-3.22-1.55-5.09-1.37-10.34-2.15-15.63-2.28-2.64-.05-5.29,.01-7.93,.32-.55,.13-.31,0-.26-1.67l.35-6.11c0-.14-.02-.26-.03-.36l6.26-17.88c.27-.86-.49-1.15-.85-.33l-9.78,22.53c-.07,.16,.05,.34,.27,.52l-.31,.87-3.53,9.87-7.03,19.76-1.75,4.94c-.56,1.66-.96,3.36-1.45,5.04l-2.81,10.1-5.58,20.21-4.32,15.78c.17-27.88,.29-55.77,.4-83.66,7.77-14.83,15.3-29.8,22.6-44.88,.89,1.23,1.78,2.46,2.67,3.69,.66,.86,1.32,1.73,1.99,2.6,1.35,1.72,2.76,3.4,4.21,5.04,0,0,.02,.01,.03,.02-.05,.03-.1,.05-.15,.09-9.47,8.02-18.48,16.58-26.96,25.64-.7,.78-.05,1.46,.76,.8,9.47-8.02,18.47-16.58,26.95-25.65,.29-.33,.27-.66,.1-.85,.21-.15,.32-.43,.17-.71-1.11-1.89-2.27-3.74-3.49-5.56-.63-.91-1.24-1.81-1.86-2.7-.45-.64-.31-.45-.33-.47,0,0-.01,0-.04-.02-.02-.02-.03-.04,.02-.06-.13-.04,.45,.05,.79,.09l1.15,.14c1.53,.18,3.07,.34,4.61,.46,.53,.02,.7-.92,.19-1.08-.14-.04-.28-.07-.42-.11,.43-2.32,.81-4.65,1.03-6.99,.27-2.37,.56-4.74,.64-7.13,.36-2.36,.54-4.74,.75-7.12,.16-2.06,.24-4.14,.23-6.22,4.25,4.98,8.29,10.16,11.95,15.56,3.54,5.44,7.15,11.12,8.07,17.38,.89,6.39,.89,13.02,.87,19.58-.05,6.58-.28,13.16-.58,19.74-.09,2.21,.85,2.29,1.11,.08,.66-6.57,1.16-13.16,1.39-19.78,.19-6.62,.3-13.26-.62-19.95-.47-3.4-1.8-6.68-3.34-9.63-1.57-2.98-3.4-5.78-5.32-8.5-.58-.81-1.19-1.6-1.79-2.39,.8-9.41,.83-18.85,0-28.26,1.1-.31,2.2-.65,3.28-1.05,2.79-1.11,5.62-2.46,7.8-4.9,1.07-1.21,1.93-2.79,2.06-4.53,.05-.92,.02-1.61,0-2.31-.04-.71,.01-1.42,.02-2.14,.09-2.52,.39-5.06,.77-7.58,.67,.36,1.39,.66,2.14,.88-.1,.23-.46,.95-.46,.98,0,.07-.22,.63-.24,.76,0,.23-.47,1.72-.15,2.67,.02,.1,.32,.28,.64,.25,.32-.02,.56-.28,.69-.51,.06-.1,.13-.2,.2-.28h.01s.02-.03,.06-.06c.06-.04,.18-.08,.34-.12l.13-.02h0s0-.02,0-.03c-.01-.06,0-.34,0-.57,.04-.41,.12-.82,.18-1.24,.04-.29,.05-.59,.09-.88,.03-.21,.08-.43,.13-.64,.96,.08,1.96,0,2.95-.34,1.32-.44,2.4-1.34,3.3-2.32,.83-1.04,1.48-2.14,1.95-3.36,.21-.63,.48-1.21,.54-1.94,.03-.35,.13-.68,.1-1.05l-.12-1.11c-.34-1.53-1.56-2.7-2.78-3.26-2.34-1.07-4.71-1.05-6.99-.84,.38-1.45,.77-2.9,1.18-4.34,.25,.35,.5,.71,.75,1.06,.41,.56,.99,.39,1.04-.1,.22,.09,.5,.04,.69-.27,2.51-3.88,4.01-8.85,3.07-13.67-.69-4.04-2.86-7.63-5.74-10.35,.15-.02,.28-.09,.36-.27,.79-1.72,1.47-3.57,1.52-5.59,.11-1-.09-2.02-.29-3.03-.33-.97-.7-1.97-1.34-2.8-1.19-1.71-2.89-2.93-4.67-3.73-1.8-.8-3.69-1.24-5.6-1.38-.56-.01-.64,.94-.17,1.08,3.42,.97,6.79,2.61,8.65,5.28,.94,1.31,1.47,2.9,1.5,4.59,.14,1.69-.22,3.45-.64,5.2,0,.02,0,.03,0,.04-.35-.31-.71-.61-1.08-.89-.57-.39-1.13,.39-.71,.83,3.07,3.2,5.34,7.18,6.06,11.41,.83,4.23-.11,8.65-1.89,12.75-2.45-4.61-5.27-8.98-7.49-13.55-.29-.58-.55-1.17-.81-1.76l-.37-.89c-.23-.54-.51-1.03-.76-1.55-.24-.63-.5-.71-1.06-.75-.48,.04-.79,.22-1.16,.65-.18,.21-.33,.52-.49,.8l-.39,.7-.47,.88-.47,.88c-.12,.24-.15,.25-.28,.35-.25,.12-.54,.15-.82-.17-.73-.79-1.37-1.67-1.94-2.6,.68-.65,1.21-1.43,1.49-2.27,.16-.42-.71-.8-.98-.52-.67,.93-1.54,1.55-2.44,1.93-.92,.39-1.98,.4-3.04,.34-1.93-.15-3.95-.76-5.94-1.48,2.19-1.08,4.38-2.17,6.53-3.3,.89-.49,.48-1.33-.48-.99-2.82,1.08-5.62,2.2-8.4,3.36-.62,.25-1.67,.72-1.44,.58-.02,0-.03-.04-.03-.06v-.04c.02-.13,.04-.25,.08-.4l.52-2.21,.25-1.11c.07-.37,.19-.7,.24-1.3,.06-.75-.27-1.52-.91-1.91-.32-.2-.68-.31-1.06-.33-.33-.02-.57,0-.82,.04-.9,.18-1.62,.42-2.36,.7-1.47,.55-2.86,1.19-4.23,1.88-.73,.38-1.46,.77-2.18,1.17,0-.73-.64-.66-1.23,.51-.05,.1-.11,.21-.16,.31-1.11,.67-2.19,1.41-3.22,2.23,1.42-3.64,3.57-7.02,6.46-9.51,1.54-1.35,3.32-2.43,5.24-3.08,.93-.42,1.96-.54,2.94-.81,1.03-.1,2.06-.28,3.09-.33,8.34-.39,16.6,3.15,23.25,8.41,1.1,.89,1.79,.24,.73-.83-3.2-3.03-6.93-5.48-11-7.26-3.6-1.55-7.53-2.46-11.51-2.51,.42-1.79,1.19-3.45,2.19-4.92,1.31-1.83,3.01-3.43,4.98-4.85,.31-.27-.09-1.12-.51-.99-2.41,.83-4.7,2.38-6.26,4.59-1.25,1.81-1.94,4.01-1.89,6.18-.04,0-.07,0-.11,0-4.44,.12-9.18,1.78-12.43,4.98-3.32,3.13-5.45,7.23-6.57,11.5-.14,.63,.03,.98,.28,1.04,.18,.18,.51,.23,.83,0,.71-.48,1.45-.93,2.21-1.35-.97,1.84-1.96,3.67-2.99,5.47-1.46-1.72-3.12-3.37-5.51-4.24-1.26-.46-2.95-.48-4.27,.37l-.87,.7c-.28,.24-.44,.54-.66,.82-.47,.55-.68,1.16-.97,1.76-.52,1.2-.82,2.44-.96,3.76-.05,1.33,.09,2.73,.72,3.97,.46,.89,1.07,1.62,1.78,2.23-.06,.09-.11,.15-.12,.16-.07,.14-.62,.83-.62,.83-.01,.06-.34,.48-.4,.58-.04,.07-.26,.43-.51,.77-.13,.17-.26,.36-.3,.39,0,.05-.08-.03,0,.09,.09,.13,.13,.21,.15,.25,.03,.07,.06,.18,.06,.2v.04c0,.07-.02,.14-.03,.21-.03,.14-.07,.29-.07,.43-.02,.49,.21,.9,.53,.83,.4-.1,.68-.26,.87-.44,.32-.32,.41-.56,.57-.78,.26-.41,.52-.82,.73-1.25,.14-.29,.23-.62,.33-.92,.05-.15,.1-.3,.16-.45,.71,.4,1.46,.72,2.23,.94-.96,1.34-1.95,2.66-3.01,3.92-.47,.6-.98,1.16-1.49,1.72-.5,.57-1.01,1.13-1.56,1.64-.55,.55-1.03,.99-1.69,1.72-.6,.69-1.03,1.51-1.35,2.35-.57,1.71-.56,3.47-.32,5.11,.25,1.64,.72,3.21,1.32,4.7,1.19,2.99,2.81,5.73,4.62,8.31,.97,1.36,2.01,2.68,3.1,3.94-.13,.13-.26,.26-.36,.4-.26,.35-.49,.72-.74,1.08-.44,.63-.9,1.24-1.32,1.88-.29,.43-.54,.9-.82,1.34-.3,.48-.6,.94-.91,1.41-.11,.17-.22,.34-.32,.51-.23,.37-.45,.74-.67,1.1-.05,.08-1.32,1.83-1.73,2.32-.27,.32-.48,.67-.69,1.03-.05,.08,.6,.59,.67,.49,.22-.28,1.44-1.54,1.61-1.81,.23-.39,2.84-3.2,2.93-3.31,.18-.22,1.22-1.34,1.23-1.37,.05-.09,.68-.82,.81-.99,.14-.19,1.28-1.74,1.84-2.46,.51,.54,.98,1.1,1.51,1.62,2.28,2.16,4.7,4.25,7.69,5.55,.38,.16,.69,.21,.95,.23,.19,.16,.43,.33,.78,.48,2.86,1.12,5.87,1.39,8.84,1.47,.94,.02,1.89,0,2.83-.04,0,.03-.02,.06-.02,.09-.06,.43-.07,.87-.12,1.31-.08,.76-.18,1.52-.24,2.29-.04,.52-.03,1.05-.06,1.57-.03,.56-.07,1.12-.1,1.68-.01,.2-.02,.4-.03,.6-.02,.43-.03,.86-.05,1.29,0,.09-.26,2.24-.38,2.87-.08,.41-.09,.82-.1,1.24,0,.02,.05,.04,.1,.06-.2,.04-.48,.29-.81,.79-.02-.12-.05-.25-.07-.37-.16-.67-.31-.89-.55-.73-.18,.12-.36,.11-.55,0-.14-.08-.27-.15-.41-.14-.46,.06-.96,.13-1.45,.19-.04,0-.09,0-.13-.01-.36-.02-.72-.05-1.07-.1-.28-.04-.59,.14-.86-.04-.05-.03-.11-.03-.17,0-.34,.17-.64,.05-.95-.03-.25-.08-.49-.2-.74-.24-.9-.15-1.81-.33-2.71-.54-.57-.14-1.09-.45-1.72-.42-.02,0-.04-.02-.06-.03-.72-.32-1.48-.55-2.28-.69-.09-.02-.17-.09-.26-.11-.38-.02-4.68-1.8-4.75-1.92-.09-.03-1.1-.67-1.59-.83-.33-.1-1.41-.8-2.39-1.53-.97-.73-1.83-1.49-1.89-1.53-.49-.34-2.02-1.36-2.13-1.71-.08-.19-1.48-1.52-1.43-1.95,.02-.4-.59-.14-1.28,.33,.08-.55,.05-.86-.08-.9-.21-.07-.67,.61-1.22,1.99-.74,.68-1.49,1.36-2.21,2.05-.13,.13-.28,.35-.27,.44,.04,.4,.13,.79,.49,.92,.15,.06,.25,.13,.31,.26,.06,.13,.15,.23,.24,.33-.57,1.6-1.13,3.2-1.7,4.8v-8.42c.38-.52,.75-1.05,1.12-1.57,1.59,.13,1.76-.71-.07-1.1-.34-.05-.69-.09-1.04-.13l.08-81.46c-.08-37.04-.16-74.07-.24-111.1,29.38-.15,58.75-.29,88.11-.44,28.97-.21,57.92-.42,86.87-.63-19.92,4.29-39.84,8.69-59.73,13.2l-32.99,7.6-34.34,8.13,.32,35.6,.53,34.15c.12,4.79,1.79,4.79,1.92,0l.53-34.15,.32-32.74,31.6-7.28,32.95-7.8Zm-55.9,145.78c-.92,2.23-2.69,4.08-4.89,5.07-2.19,1.01-4.75,1.15-7.03,.38-2.29-.74-4.27-2.38-5.41-4.51-1.16-2.11-1.48-4.66-.87-6.99,.04-.17,.09-.34,.19-.49,.02-.03,.03-.07,.05-.1,.09-.24,0-.52-.21-.73,.01-.03,.02-.06,.04-.09s.02-.06,.03-.09c.29,0,.55-.14,.66-.37,.02-.03,.03-.07,.04-.1,.04-.19,.13-.35,.22-.51,1.05-1.83,2.76-3.23,4.72-4.02h0s.09,.1,.15,.11c.19,.05,.26,.3,.51,.24,.04-.01,.05,.04,.08,.07,.18,.2,.34,.43,.62,.45,.05,0,.08,.05,.12,.08l.17,.15c.29,.23,.69,.25,.93,.56,.02,.03,.06,.02,.09,.04,.12,.07,.25,.13,.36,.22,.17,.16,.55-.06,.72,.11,.04,.04,.08,.08,.14,.07,.16-.01,.52,.33,.66,.29,.13-.04,.6,.33,.76,.44,.1,.08,1.09,.91,1.39,.88,.16-.02,.31,0,.4,.1,.03,.04,.09,.02,.14,.03,.07,0,.15-.02,.2,.02,.08,.06,.21,0,.44-.27,.1-.17,.43-.76,.53-.95,.1-.17,.18-.35,.18-.42,0-.07-.02-.1,0-.19,.02-.09,.09-.25,.11-.36,.02-.11,.03-.16,.05-.28,.03-.12,.03-.19,0-.2-.13-.07-1.12-.73-1.32-.96-.02-.02-.05-.02-.07-.03-.16-.08-.34-.13-.47-.25-.05-.05-.11-.07-.16-.1,.37,.13,.75,.25,1.11,.43,2.16,1.06,3.88,2.96,4.72,5.22,.86,2.25,.82,4.81-.1,7.04Zm9.9-3.66c.88,.51,1.45,1.2,1.61,2.02,0,.22,.02,.44,.05,.66,.02,.22-.07,.48-.1,.71-.02,.48-.27,.98-.43,1.47-.38,.99-.94,1.96-1.55,2.8-.68,.78-1.42,1.49-2.35,1.88-.58,.25-1.21,.38-1.87,.42,.15-.38,.4-1,.53-1.22,.12-.21,.18-.45,.23-.69,.01-.06-.73-.39-.76-.33-.09,.19-.7,1.04-.75,1.23-.03,.1-.27,.53-.54,.99-.92-.1-1.85-.35-2.73-.71,.6-3.57,1.38-7.11,2.27-10.64,2.25,.09,4.63,.38,6.38,1.39Zm-45.98-27.32c1.26-.63,2.55-1.22,3.84-1.79,1.37-.59,2.75-1.15,4.13-1.62,.68-.24,1.41-.45,1.99-.56,.13-.02,.27-.02,.31-.02-.01,0,0,0,0,0h0c0,.16-.1,.56-.18,.93l-.24,1.11-.47,2.22c-.05,.22-.09,.47-.1,.72-.02,.35,0,.74,.11,1.07,.2,.68,.77,1.18,1.45,1.27,.65,.12,1.51-.35,1.7-.44l1.03-.5c.11-.05,.22-.11,.34-.17,.01,.02,0,.05,.02,.07,1.99,1.52,4.31,2.72,7.01,2.95,1.32,.09,2.79-.04,4.04-.79,.06-.03,.11-.08,.16-.12,.47,1,1.01,1.97,1.68,2.86,.49,.78,1.79,1.23,2.75,.76,.48-.18,.94-.67,1.12-1.02l.53-.85,.53-.85c.12-.2,.09-.14,.11-.16l.03-.02s.07,0,.06,.05c0,.03,0,0,0,.05l.37,.96c.27,.63,.54,1.26,.84,1.87,1.99,4.09,4.56,7.75,7.13,11.35-.03,.06-.05,.1-.08,.17-.72,2.02-1.38,4.07-2.01,6.13-.17-1.11-.5-2.19-1-3.2-1.17-2.4-3.23-4.36-5.7-5.39-1.59-.66-3.33-.9-5.05-.79-.05-.04-.11-.08-.14-.15-.05-.11-.13-.18-.21-.23l-1.47-.82c-.1-.05-.22-.07-.3-.15-.1-.1-.22-.15-.33-.21l-.08-.05s-.11-.07-.19-.12c-.11-.07-.24-.15-.26-.21-.02-.03-.07-.02-.14,.11-.14,.24-.23,.31-.3,.32-.02,0-.06,.05-.09,.08-.04,.04-.75,1.53-.8,1.66-.05,.13-.27,.73-.26,.76,0,0,0,.04,0,.04,.08,.06,.16,.1,.23,.18-1.86,.96-3.46,2.44-4.5,4.27-.11,.16-.21,.32-.34,.51l-.06,.11s0,.03-.01,.05l-4.59-1.88s.02-.02,.02-.04c.01-.04,.02-.08,.03-.12,.05-.23,.08-.43,.12-.64,.54-2.08,.43-4.31-.26-6.34,0,0,0,0,.01-.02,.14-.24,.23-.31,.3-.32,.02,0,.06-.05,.09-.08,.04-.04,.75-1.53,.8-1.66,.05-.13,.27-.73,.26-.76,0,0,0-.04,0-.04-.11-.08-.24-.11-.32-.28,0-.03-.07-.03-.13-.01-.13,.03-.28,.03-.38,0-.06-.02-.12-.08-.17-.14-.17-.19-.34-.43-.59-.32-.02,0-.03,0-.04,0-.2-.03-.38-.15-.6-.12-.05,0-.08-.04-.13-.06-.05-.03-.1-.07-.17-.07-.19,0-.32-.23-.54-.11-.04,.02-.06-.03-.09-.05-.22-.15-.43-.34-.7-.29-.05,0-.09-.03-.13-.05l-.2-.1c-.09-.04-.18-.07-.28-.09-1.17-1.07-2.56-1.91-4.06-2.39-2.64-.88-5.62-.71-8.14,.47-.29,.13-.54,.32-.82,.47,1.25-2.42,2.42-4.88,3.53-7.36Zm-1.23,7.93c1.58-.56,3.29-.68,4.94-.38-.05,.02-.1,.03-.14,.01-.09-.04-.21,.05-.38,.36-.06,.19-.27,.83-.34,1.03-.06,.19-.1,.38-.09,.44,.01,.07,.04,.09,.04,.18,0,.09-.03,.27-.04,.37,0,.11,0,.16,0,.28,0,.12,0,.19,.04,.2,.14,.04,1.27,.46,1.53,.64,.02,.02,.05,0,.08,.01,.18,.04,.36,.05,.52,.14,.19,.11,.4,.1,.6,.17,.2,.07,.4,.1,.61,.14,.05,0,.7,.31,.99,.13,.02-.01,.03,0,.04,0,.36,.12,.73,.24,1.09,.35,.22,.07,.44,.13,.65,.2,.16,.04,.32,.05,.47,.09,.09,.03,.17,.07,.25,.16,.08,.09,.17,.14,.27,.17l.72,.2c.98,2.01,1.23,4.36,.65,6.52-.04,.17-.09,.34-.19,.49-.02,.03-.03,.07-.05,.1-.05,.14-.03,.28,.02,.42-.04,.09-.08,.18-.12,.28-.04,.1-.08,.2-.11,.29-.13,.07-.25,.16-.31,.28-.02,.03-.03,.07-.04,.1-.04,.19-.13,.35-.22,.51-.37,.69-.88,1.29-1.41,1.86-1.61,1.65-3.84,2.69-6.14,2.86-2.3,.2-4.66-.5-6.5-1.89-1.85-1.38-3.17-3.44-3.65-5.7-.38-1.78-.2-3.66,.44-5.36,.56-.95,1.12-1.89,1.66-2.86,1.09-1.28,2.53-2.27,4.12-2.83Zm-12.51,7.28l.02-.08c.02-.05,.47-1.25,.63-1.59,.11-.22,.16-.46,.2-.71,.01-.06-.75-.35-.78-.29-.08,.2-.65,1.06-.69,1.25-.01,.08-.12,.29-.27,.54-.41-.47-.75-.99-.98-1.55-.39-.93-.42-1.96-.36-2.99,.15-1.03,.43-2.11,.86-3.09,.23-.47,.41-1,.73-1.35,.15-.18,.26-.43,.43-.58,.17-.14,.34-.29,.5-.44,.7-.47,1.58-.57,2.57-.31,1.93,.51,3.8,1.94,5.45,3.43-1.33,2.29-2.7,4.55-4.15,6.75-.55,.83-1.12,1.64-1.69,2.46-.9-.38-1.75-.86-2.48-1.45Zm22.67,45.32c-2.85,.05-5.78-.07-8.44-.93-.36-.11-.64-.18-.87-.22-.2-.14-.46-.29-.81-.47-2.65-1.33-4.92-3.47-7.02-5.65-2.09-2.22-3.98-4.63-5.67-7.16-1.67-2.54-3.16-5.2-4.23-8-1.04-2.75-1.72-5.81-.91-8.34,.41-1.29,1.28-2.04,2.51-3.26,.58-.55,1.11-1.14,1.62-1.75,.52-.6,1.05-1.18,1.53-1.81,1.52-1.88,2.88-3.86,4.18-5.88,.01,1.32,.25,2.64,.72,3.87,.98,2.61,2.98,4.81,5.49,6.03,2.49,1.25,5.47,1.5,8.13,.68,2.67-.8,5.01-2.64,6.4-5.06,.11-.16,.21-.32,.34-.51l.06-.11s0-.03,.01-.05l4.48,1.83c-.26,1.42-.6,2.82-1.06,4.13-.5,1.4-1.16,2.74-2.1,3.57-1.78,1.77-4.99,.48-7.59-1.09-.47-.24-1.06,.49-.67,.89,1.19,1.12,2.54,2.14,4.23,2.75,.85,.28,1.79,.47,2.79,.33,.99-.13,1.96-.6,2.68-1.25,.85-.77,1.39-1.68,1.8-2.62,.45,1.53,1.19,2.97,2.24,4.17,1.74,2.04,4.25,3.37,6.9,3.72,2.65,.37,5.42-.26,7.65-1.74,.99-.65,1.84-1.49,2.57-2.43-.17,.76-.36,1.52-.51,2.29-.57,2.9-.99,5.84-1.14,8.83-.02,.75-.08,1.49-.05,2.25,.02,.76,.03,1.54,0,2.08-.1,1.2-.69,2.33-1.55,3.3-1.74,1.97-4.32,3.3-6.92,4.36-2.64,1.03-5.42,1.78-8.24,2.31-2.82,.54-5.69,.85-8.56,.93Zm2.56,14.57c.05-.35,.5-2.05,.52-2.37,.02-.45,.92-4.18,.94-4.32,.04-.28,.41-1.76,.41-1.8,0-.11,.19-1.05,.22-1.26,.04-.27,.36-2.89,.46-3.42,1.27-.1,2.53-.25,3.78-.45,1.51-.23,3-.54,4.49-.92-.75,8.9-.67,17.82-.04,26.74-3.13-4.05-6.49-7.91-10.01-11.6-.3-.3-.56-.49-.78-.6h.02Zm-35.43-11.84c.28,.02,.57,.03,.85,.06-.29,.3-.57,.6-.85,.9v-.96Zm32.41,18.18c.34-.03,.69-.04,1.05,.1,.08,.03,.17-.03,.25-.09,.31-.24,.3-2.26,.3-2.91,0-.17,0-.33,0-.5,.18-.4,.38-.79,.56-1.19,.2-.44,.31-.8,.36-1.08,.05,.09,.1,.19,.17,.3-.43,2.17-.76,4.35-.98,6.54-.22,2.38-.47,4.75-.55,7.14-.35,2.36-.49,4.75-.65,7.13-.2,2.34-.24,4.69-.26,7.04-1.32-.36-2.64-.71-3.97-1.03l-1.13-.26-1.48-.31c-1.11-.21-2.2-.42-3.3-.63,3.25-6.73,6.46-13.47,9.62-20.24Zm-32.46,17.61c.79-.58,1.59-1.06,2.5-1.24,1.3-.3,2.61-.05,3.92,.5,1.42,.46,2.6,.99,3.36,1.98,.83,1.04,1.28,2.42,1.47,3.88,.14,.5,.73,.6,.95,.06,.37-1.63,.1-3.44-.77-5.02-.45-.81-1.15-1.53-1.91-2.02-.75-.51-1.57-.83-2.32-1.13-1.59-.53-3.54-.66-5.25-.08-.7,.26-1.37,.63-1.95,1.09,0-.45,0-.9,0-1.36,.4-.22,.8-.45,1.22-.62,2.22-.85,4.58-1.2,6.76-.54,1.06,.37,2.08,.8,3,1.43,.9,.65,1.64,1.5,2.25,2.49,1.2,1.99,1.66,4.46,1.44,6.92,.08,.86,.79,1.14,1.29,.29,.91-2.65,.7-5.7-.52-8.36-.61-1.34-1.56-2.57-2.72-3.54-1.15-.98-2.53-1.72-4.01-2.01-1.46-.34-2.96-.41-4.43-.22-1.48,.16-2.84,.78-4.1,1.44-.06,.03-.12,.08-.18,.12v-.99c.06-.03,.12-.07,.19-.1,2.88-1.29,5.94-2.23,8.78-1.54,2.86,.66,5.39,2.64,6.83,5.31,1.45,2.7,1.88,5.94,1.59,9.1,.04,1.09,.41,1.22,.88,.15,.81-3.26,.56-6.85-.87-10.05-1.42-3.21-4.38-5.85-7.93-6.65-1.76-.42-3.66-.35-5.35,.1-1.47,.37-2.81,.96-4.11,1.64v-12.74c.92-2.73,1.83-5.46,2.73-8.19,.4,.37,.94,.92,1.52,1.45,1.03,.98,2.16,1.9,2.47,1.93,.15,.01,.26,.09,.36,.19,.59,.65,4.02,2.67,4.43,3.14,.05,.07,.09,.17,.17,.19,.37,.06,1.81,.88,2.13,.98,.15,.05,.26,.2,.39,.29,.13,.09,.27,.17,.42,.22,.19,.07,.39,.09,.59,.15,.19,.06,.36,.16,.56,.19,.2,.04,1.52,.67,2.87,1.19,1.35,.52,2.74,.93,2.93,.76,.17-.15,1.19,.81,1.73,.75,.29-.03,.55,.1,.83,.17,.65,.17,1.29,.38,1.95,.47,.31,.08,2.72,.35,3.04,.2,.35-.14,.7-.13,1.04-.03,.26,.08,.52,.1,.78,.1-10.84,20.74-21.23,41.76-31.15,62.96,.06-15.13,.14-30.25,.18-45.38Z"/><path class="cls-6" d="M511.56,6.24c-.06,1.07-.11,2.25-.13,3.6-1.79,156.19-1.78,312.82,.02,469.01,.18,11.03,2.56,11.03,2.74,0,1.8-156.19,1.81-312.81,.02-469.01-.02-1.27-.07-2.38-.12-3.41,73.18,1.78,146.55,1.78,219.73,0-.03,.58-.04,1.19-.05,1.84-1.8,156.51-1.81,313.46-.02,469.97,.2,13.16,2.57,13.16,2.77,0,1.79-156.52,1.78-313.46-.02-469.97-.01-.76-.04-1.46-.07-2.11,2.8-.55,2.74-1.75-.17-2.27-.51-5.09-1.71-5.17-2.24-.23-.05,0-.1,0-.15,0-73.26-1.78-146.73-1.78-219.99,0-.54-4.94-1.59-4.9-2.12,.16-3,.47-3.06,1.9-.18,2.41Z"/><path class="cls-6" d="M582.37,128.52c-4.37,.69-7.98,3.55-10.29,6.97-.32,.53,.49,1.05,.86,.68,2.72-2.78,6.12-4.94,9.78-5.49,3.65-.67,7.44,.54,10.85,2.47,.6,.28,1.17-.47,.63-.91-1.6-1.28-3.38-2.48-5.43-3.12-2-.75-4.26-.93-6.41-.58Z"/><path class="cls-6" d="M533.22,308.21c-1.24,3.72-1.89,7.7-1.39,11.73,.27,1.99,.76,4.03,1.85,5.82,1.07,1.76,2.53,3.38,4.4,4.22,.61,.32,1.04-.53,.58-.94-2.96-2.23-4.26-5.76-4.67-9.37-.46-3.63-.21-7.44,.29-11.19,.06-.52-.85-.8-1.06-.27Z"/><path class="cls-6" d="M570.58,199.79s-.72,.05-1.83,.07c-.34-.02-.73-.05-1.13-.09-.09-.32-.49-.5-.91-.22-.04,.03-.08,.05-.11,.08-.47-.08-.95-.2-1.43-.35-.38-.48-1.25-1.64-1.89-3.04l-.12-.26c-.07-.12-.15-.23-.25-.33-.19-.21-.45-.37-.73-.47-.29-.1-.6-.13-.92-.08-.16,.02-.31,.07-.46,.13l-.26,.09c-.98,.4-.62,.13-.69,.16h0s0,.31-.35-.68c-.14-.51-.65-1.13-1.23-1.3-.29-.1-.59-.13-.88-.08-.25,.05-.38,.1-.57,.15-1.32,.38-2.59,.51-3.3,.55-.23-.12-.47-.23-.69-.36-.27-.14-.53-.3-.79-.45-.07-.41-.14-.82-.2-1.23-.12-.66-1.07-.62-1.09,.08,0,.1,0,.2,0,.29-.5-.37-.95-.73-1.33-1.06-.84-.73-1.31-1.28-1.31-1.28-.18-.16-.62,.21-.43,.42,0,0,.58,.5,1.43,1.23,.48,.42,1.06,.93,1.67,1.48,.04,2.07,.17,4.14,.48,6.21,.18,1.22,.42,2.43,.79,3.65,.38,1.21,.76,2.45,1.89,3.65,.34,.27,.72,.58,1.19,.71,.25,.06,.5,.1,.75,.13,.21-.01,.4-.03,.6-.06,.79-.11,1.4-.36,2-.62,1.19-.54,2.25-1.19,3.27-1.89,2.03-1.4,3.9-2.96,5.68-4.61,.04-.04,.06-.08,.09-.12,.44,.02,.86,.04,1.23,.06,1.14,0,1.89,.05,1.89,.05,.27-.02,.22-.59-.04-.61Zm-9.2-2.84l.22-.17s.03-.05,.05-.07c.04-.05,.1-.08,.18-.1,.18-.01,.29-.08,.59,.21,.86,.73,1.5,1.57,1.92,2.18-1.27-.45-2.54-.99-3.74-1.53,.37-.23,.66-.42,.78-.52Zm-4.47-2.35c.16,.03,.41,.05,.51,.08,.09,.04,.15,.1,.2,.16,.1,.16,.07,.2,.07,.42,0,.16,.05,.49,.13,.91-1.1-.5-2.3-1.04-3.49-1.63,.71-.07,1.62-.09,2.58,.06Zm3.79,8.81c-1.01,.59-2.05,1.14-3.07,1.56-.5,.21-1.03,.38-1.44,.42l-.3,.03s-.09-.04-.14-.03c-.1-.02-.2-.14-.34-.21-.56-.56-1.04-1.66-1.39-2.72-.37-1.08-.66-2.21-.92-3.36-.33-1.47-.61-2.97-.87-4.47,1.61,1.59,3.67,3.07,5.55,3.95,1.87,.91,4.4,1.46,6.67,1.57,.44,.02,.86,.04,1.25,.06-1.65,1.12-3.32,2.21-5.02,3.2Z"/><path class="cls-6" d="M553.24,172.84c.06,.29,.22,.55,.38,.78,.18,.21,.31,.44,.68,.68,.33,.21,.79,.24,1.12,.15,.27-.06,.51-.14,.75-.24,.49-.21,.96-.52,1.34-.96,.38-.43,.64-1,.73-1.6,.05-.3,.06-.6,.04-.89-.04-.37-.17-.7-.35-1-.35-.56-1.16-1.27-2.1-1.06-.43,.09-.64,.21-.91,.34-.26,.14-.52,.31-.75,.52-.83,.76-1.31,1.97-.93,3.13,0,.05,0,.1,0,.14Zm1.89-1.11c.08-.21,.22-.4,.43-.55,.15-.14,.56-.31,.66-.33,0,.02,0-.01,0-.06h0s.04-.02,.06-.02c.09,.05,.13,.11,.17,.18,.09,.12-.34,.99-.81,1.51-.1,.12-.29,.34-.31,.33-.03,0-.06,0-.08,0,.05,.02-.3-.15-.23-.42,.01-.08,.02-.46,.1-.64Z"/><path class="cls-6" d="M580.67,178.88c-.52-.81-1.6-.87-2.24-.72-.35,.08-.66,.22-.95,.46-.22,.19-.43,.41-.6,.66-.36,.48-.57,1.07-.6,1.64-.04,.58,.08,1.13,.28,1.62,.1,.25,.22,.47,.37,.7,.17,.29,.52,.6,.9,.68,.43,.1,.68,.03,.96,0,.27-.05,.57-.12,.82-.28,.13-.08,.25-.17,.36-.27,.91-.62,1.34-1.69,1.29-2.72-.02-.31-.08-.61-.17-.9-.1-.29-.17-.52-.41-.88Zm-1.62,2.66c-.07,.19-.33,.47-.38,.54-.14,.24-.51,.12-.48,.14-.03,0-.06-.03-.07-.06-.02-.01,0-.3,.01-.46,.04-.67,.29-1.52,.47-1.64,.06-.02,.11-.03,.17-.04,.09-.02,.15,.04,.14,.08h0s-.06,.06-.04,.05c.01,0,.1,.18,.15,.3,.05,.13,.09,.26,.1,.39,.04,.25,.01,.49-.08,.7Z"/><path class="cls-6" d="M556.91,307.59c.53-.59,.04-1.43-.8-.77-.96,.89-1.58,2.07-1.97,3.26-.1,.33-.18,.53-.27,.98-.14,.5-.07,1.02,.19,1.43,.5,.86,1.76,1.16,2.65,.52l1.42-.81c.42-.28,.93-.42,1.39-.62,.92-.44,1.94-.62,2.91-.9,2.02-.38,4.09-.5,6.18-.44,4.18,.22,8.39,1.08,12.45,2.42,.72,.23,1.13-.63,.42-1.01-3.97-1.91-8.27-3.17-12.75-3.53-2.24-.13-4.52-.01-6.76,.47-1.1,.34-2.22,.59-3.25,1.13-.52,.26-1.07,.44-1.53,.79l-1.35,.9c-.06,.09-.22,.12-.31,.01-.05-.05-.06-.12-.06-.2,.01-.13,.08-.5,.13-.74,.23-1.06,.64-2.08,1.31-2.9Z"/><path class="cls-6" d="M579.09,308.66c1.59,.77,3.19,1.67,4.76,2.69,.22,.12,.93-.52,.77-.78-1.18-1.64-2.74-2.98-4.6-3.88-1.85-.88-4.08-1.24-6.09-.65-.34,.11-.18,1.04,.12,1.1,1.81,.16,3.43,.77,5.04,1.51Z"/><path class="cls-6" d="M578.58,315.11c.44-1.46-.48-1.67-1.01-.4-1,2.28-2.53,4.29-4.09,6.33-1.58,2.03-3.15,4.06-4.71,6.08-3.17,4.03-6.4,8.02-9.68,11.96-6.56,7.89-13.34,15.58-20.34,23.09-1.16,1.28-.5,1.95,.78,.78,7.52-7.03,14.62-14.54,21.22-22.48,3.3-3.97,6.48-8.04,9.52-12.2,1.52-2.08,3.01-4.19,4.47-6.31,1.45-2.12,2.94-4.32,3.84-6.84Z"/><path class="cls-6" d="M646.01,121.13c3.9-.37,7.93,1.11,10.82,3.9,2.92,2.81,4.76,6.69,5.63,10.75,.42,1.35,.82,1.35,.88-.13-.4-4.32-2.19-8.59-5.25-11.87-3.04-3.3-7.68-5.27-12.29-4.82-2.29,.21-4.54,1.04-6.43,2.25-1.91,1.2-3.52,2.71-5.02,4.3-1.48,1.62-2.79,3.4-3.79,5.37-.99,1.95-1.74,4.08-1.82,6.27,0,1.24,.38,1.24,.65,.09,.95-4.07,3.26-7.64,6.25-10.48,3.01-2.82,6.45-5.31,10.37-5.63Z"/><path class="cls-6" d="M654.4,125.7c-.78-.55-1.66-.92-2.53-1.3-1.77-.7-3.71-1.02-5.6-.81-1.88,.16-3.72,.67-5.41,1.48-1.71,.79-3.13,2.04-4.4,3.33-1.25,1.32-2.3,2.8-3.09,4.41-.25,.88-.71,1.63-.98,2.47-.29,.83-.52,1.68-.68,2.54-.04,1.01,.45,1.11,.93,.27,.32-.77,.66-1.53,1.05-2.26,.39-.72,.71-1.49,1.3-2.09,.92-1.35,1.94-2.6,3.12-3.67,2.39-2.06,5.27-3.51,8.34-3.62,1.52-.01,3.02,.13,4.46,.58,1.43,.47,2.73,1.26,3.9,2.27,2.33,2.06,3.9,5.01,4.55,8.19,.36,1.05,1.12,1.1,1.32-.13-.06-3.58-1.56-7.16-4.13-9.85-.65-.67-1.37-1.28-2.15-1.82Z"/><path class="cls-6" d="M649.38,129.84c-1.11-.3-2.21-.36-3.25-.41-2.14-.02-4.51,.57-6.34,1.93-1.78,1.38-3.1,3.43-3.12,5.63,.18,.66,.31,.62,.71,.16,.91-1.73,1.94-3.3,3.5-4.23,1.53-.96,3.32-1.24,5.21-1.1,1.95,0,3.74,.19,5.14,1.19,1.48,1.02,2.59,2.61,3.36,4.38,.33,.58,.92,.49,.92-.25-.28-2.12-1.36-4.17-3.05-5.69-.86-.78-1.98-1.33-3.07-1.62Z"/></g><path class="cls-5" d="M469.86,186.68c-.05,0-.11,0-.16,.02-.28,.09-.56,.13-.84,.13h-87.52c-.26,0-.53-.04-.79-.13-.05-.02-.11-.03-.17-.03-.58,0-1.05,.92-1.05,2.06s.47,2.06,1.05,2.06c.05,0,.11,0,.16-.02,.28-.09,.56-.13,.84-.13h87.52c.26,0,.53,.04,.79,.13,.05,.02,.11,.03,.17,.03,.58,0,1.05-.92,1.05-2.06s-.47-2.06-1.05-2.06Z"/><path class="cls-5" d="M457.58,193.18s-.08,0-.12,.02c-.2,.09-.41,.13-.61,.13h-63.49c-.19,0-.39-.04-.58-.13-.04-.02-.08-.03-.12-.03-.42,0-.76,.92-.76,2.06s.34,2.06,.76,2.06c.04,0,.08,0,.12-.02,.2-.09,.41-.13,.61-.13h63.49c.19,0,.39,.04,.58,.13,.04,.02,.08,.03,.12,.03,.42,0,.76-.92,.76-2.06s-.34-2.06-.76-2.06Z"/><path class="cls-2" d="M288.14,270.85c14.92-.01,27.01-12.11,27.01-27.03,0-3.88-.82-7.56-2.28-10.89-3.64-8.27-11.98-13.47-21.01-13.47h-76.08l.03-.04c-1.36,0-2.38-1.11-2.43-2.46,0-.09,0-.17-.01-.26-.07-1.44,.99-2.68,2.43-2.68h109.76c4.21,0,8.29-1.09,11.86-3.05v-43.46c-3.54-1.93-7.58-2.98-11.75-2.98h-74.59c-1.45,0-2.5-1.24-2.43-2.69,0-.09,0-.17,.01-.26,.05-1.35,1.08-2.45,2.43-2.45h47.45c8.97,0,17.41-4.94,21.21-13.07,3.81-8.14,3.73-18.48-2.67-28.61-4.6-7.28-13.11-10.55-21.72-10.32-7.33,.19-13.34-5.66-13.34-12.94v-27.29h-27.28v41.56c0,10.91,5.12,17.36,10.36,21.12,2.14,1.53,1.08,4.91-1.56,4.91,0,0-39.1,.15-40.54,.38-5.71-.01-11.52,1.84-16.48,5.93-8.28,6.83-11.44,18.54-7.69,28.6,2.2,5.9,6.68,15.42,22.01,17.01h75.93c1.41,0,2.45,1.19,2.43,2.59,0,.08,0,.17,0,.25,0,1.4-1.04,2.56-2.43,2.56h-109.25c-.09,0-.19,0-.28,0h-.04s-.03,0-.05,0h-.01v52.03c.13,0,.25,.02,.37,.01l69.53-.03c2.6,0,3.66,3.33,1.54,4.85-5.19,3.71-10.25,10.09-10.25,20.88v36.97h26.97v-22.87c0-7.08,5.74-12.79,12.82-12.8Z"/><path class="cls-3" d="M108.3,246.62c-.05,0-.11,0-.16,.02-.28,.09-.56,.13-.84,.13H19.78c-.26,0-.53-.04-.79-.13-.05-.02-.11-.03-.17-.03-.58,0-1.05,.92-1.05,2.06s.47,2.06,1.05,2.06c.05,0,.11,0,.16-.02,.28-.09,.56-.13,.84-.13H107.34c.26,0,.53,.04,.79,.13,.05,.02,.11,.03,.17,.03,.58,0,1.05-.92,1.05-2.06s-.47-2.06-1.05-2.06Z"/><path class="cls-3" d="M103.06,126.74s-.1,0-.14,.02c-.25,.09-.5,.13-.75,.13H24.92c-.23,0-.47-.04-.7-.13-.05-.02-.1-.03-.15-.03-.51,0-.93,.92-.93,2.06s.42,2.06,.93,2.06c.05,0,.1,0,.14-.02,.25-.09,.5-.13,.75-.13H102.21c.23,0,.47,.04,.7,.13,.05,.02,.1,.03,.15,.03,.51,0,.93-.92,.93-2.06s-.42-2.06-.93-2.06Z"/><path class="cls-3" d="M103.06,179.96s-.1,0-.14,.02c-.25,.09-.5,.13-.75,.13H24.92c-.23,0-.47-.04-.7-.13-.05-.02-.1-.03-.15-.03-.51,0-.93,.92-.93,2.06s.42,2.06,.93,2.06c.05,0,.1,0,.14-.02,.25-.09,.5-.13,.75-.13H102.21c.23,0,.47,.04,.7,.13,.05,.02,.1,.03,.15,.03,.51,0,.93-.92,.93-2.06s-.42-2.06-.93-2.06Z"/><path class="cls-3" d="M103.06,233.19s-.1,0-.14,.02c-.25,.09-.5,.13-.75,.13H24.92c-.23,0-.47-.04-.7-.13-.05-.02-.1-.03-.15-.03-.51,0-.93,.92-.93,2.06s.42,2.06,.93,2.06c.05,0,.1,0,.14-.02,.25-.09,.5-.13,.75-.13H102.21c.23,0,.47,.04,.7,.13,.05,.02,.1,.03,.15,.03,.51,0,.93-.92,.93-2.06s-.42-2.06-.93-2.06Z"/><path class="cls-3" d="M96.02,253.12s-.08,0-.12,.02c-.2,.09-.41,.13-.61,.13H31.8c-.19,0-.39-.04-.58-.13-.04-.02-.08-.03-.12-.03-.42,0-.76,.92-.76,2.06s.34,2.06,.76,2.06c.04,0,.08,0,.12-.02,.2-.09,.41-.13,.61-.13h63.49c.19,0,.39,.04,.58,.13,.04,.02,.08,.03,.12,.03,.42,0,.76-.92,.76-2.06s-.34-2.06-.76-2.06Z"/></svg>