<?xml version="1.0" encoding="UTF-8"?><svg id="Capa_1" xmlns="http://www.w3.org/2000/svg" viewBox="0 0 787.89 397.97"><defs><style>.cls-1{fill:#fff;}</style></defs><path class="cls-1" d="M147.97,87.49v80.59c-12.38-10.94-28.09-17.46-45.18-17.46-40,0-72.43,35.77-72.43,79.88s32.42,79.88,72.43,79.88c17.09,0,32.8-6.52,45.18-17.46l6.49,12.92h54.12V87.49h-60.61Zm-26.84,170.43c-16.26,0-29.44-13.21-29.44-29.49s13.18-29.5,29.44-29.5c11.96,0,22.25,7.16,26.84,17.43,1.66,3.68,2.58,7.77,2.58,12.07s-.93,8.37-2.58,12.06c-4.59,10.27-14.88,17.43-26.84,17.43Z"/><g><rect class="cls-1" x="564.6" y="158.69" width="60.6" height="147.13"/><circle class="cls-1" cx="595.71" cy="117.91" r="29.49"/><path class="cls-1" d="M302.14,139.39c-46.29,0-83.82,38.3-83.82,85.56s37.53,85.55,83.82,85.55,83.82-38.3,83.82-85.55-37.53-85.56-83.82-85.56Zm27.86,91.42c-4,11.56-14.97,19.84-27.87,19.84-16.29,0-29.49-13.2-29.49-29.49s13.2-29.5,29.49-29.5c12.91,0,23.88,8.3,27.87,19.84,1.06,3.02,1.63,6.28,1.63,9.66s-.57,6.63-1.63,9.65Z"/><polygon class="cls-1" points="489.72 134.85 459.42 205.39 459.42 87.47 398.82 87.47 398.82 305.8 459.42 305.8 459.42 227.9 488.66 305.82 549.62 305.82 516.42 217.32 551.85 134.85 489.72 134.85"/><path class="cls-1" d="M757.53,206.91v-57.08h-29.5v-50.4h-60.6v50.4h-27.51v57.08h27.51v44.38c0,86.56,90.1,52.59,90.1,52.59v-49.46c-17.48,7.31-29.49,3.67-29.49-18.71v-28.8h29.49Z"/></g></svg>